<!DOCTYPE svg PUBLIC "-//W3C//DTD SVG 1.1//EN" "http://www.w3.org/Graphics/SVG/1.1/DTD/svg11.dtd">

<!-- Uploaded to: SVG Repo, www.svgrepo.com, Transformed by: SVG Repo Mixer Tools -->
<svg width="800px" height="800px" viewBox="-3.12 -3.12 30.24 30.24" fill="none" xmlns="http://www.w3.org/2000/svg" stroke="#ffffff">

<g id="SVGRepo_bgCarrier" stroke-width="0"/>

<g id="SVGRepo_tracerCarrier" stroke-linecap="round" stroke-linejoin="round" stroke="#fe3939" stroke-width="4.8"> <path d="M10.0696 7C10.3869 3.9787 11.8424 3 15.5 3C19.7059 3 21 4.29412 21 8.5C21 12.1576 20.0213 13.6131 17 13.9304M3 15.5C3 11.2941 4.29412 10 8.5 10C12.7059 10 14 11.2941 14 15.5C14 19.7059 12.7059 21 8.5 21C4.29412 21 3 19.7059 3 15.5Z" stroke="#ffffff" stroke-width="2.4" stroke-linecap="round" stroke-linejoin="round"/> </g>

<g id="SVGRepo_iconCarrier"> <path d="M10.0696 7C10.3869 3.9787 11.8424 3 15.5 3C19.7059 3 21 4.29412 21 8.5C21 12.1576 20.0213 13.6131 17 13.9304M3 15.5C3 11.2941 4.29412 10 8.5 10C12.7059 10 14 11.2941 14 15.5C14 19.7059 12.7059 21 8.5 21C4.29412 21 3 19.7059 3 15.5Z" stroke="#ffffff" stroke-width="2.4" stroke-linecap="round" stroke-linejoin="round"/> </g>

</svg>